<svg width="101.729492" height="13.663330" viewBox="0 0 101.729 13.6633" fill="none" xmlns="http://www.w3.org/2000/svg" xmlns:xlink="http://www.w3.org/1999/xlink">
	<desc>
			Created with Pixso.
	</desc>
	<defs/>
	<path id="ЁЛКИПАЛКИ" d="M1.96087 1.955Q2.1835 2.06909 2.4646 2.06909Q2.74501 2.06909 2.96484 1.95368Q3.09525 1.88521 3.20435 1.77612Q3.30947 1.671 3.37688 1.54559Q3.49731 1.32152 3.49731 1.03271Q3.49731 0.740275 3.37383 0.515753Q3.30711 0.394448 3.20435 0.292969Q3.09525 0.183877 2.96484 0.115407Q2.74501 0 2.4646 0Q2.1835 0 1.96087 0.114096Q1.82676 0.182829 1.71387 0.292969Q1.60124 0.401475 1.53085 0.532648Q1.41357 0.751216 1.41357 1.03271Q1.41357 1.31061 1.52787 1.52857Q1.59884 1.6639 1.71387 1.77612Q1.82676 1.88626 1.96087 1.955ZM4.98028 1.94865Q5.20436 2.06909 5.49316 2.06909Q5.77426 2.06909 5.99689 1.955Q6.131 1.88626 6.2439 1.77612Q6.35893 1.6639 6.42989 1.52857Q6.54419 1.31061 6.54419 1.03271Q6.54419 0.751216 6.42691 0.532648Q6.35652 0.401475 6.2439 0.292969Q6.131 0.182829 5.99689 0.114096Q5.77426 0 5.49316 0Q5.20436 0 4.98028 0.120439Q4.85488 0.187842 4.74976 0.292969Q4.64699 0.394448 4.58027 0.515753Q4.45679 0.740275 4.45679 1.03271Q4.45679 1.32152 4.57723 1.54559Q4.64463 1.671 4.74976 1.77612Q4.85488 1.88125 4.98028 1.94865ZM8.12988 13.4985L8.12988 11.5503L2.41333 11.5503L2.41333 9.11865L7.29126 9.11865L7.29126 7.229L2.41333 7.229L2.41333 4.94751L7.93579 4.94751L7.93579 2.99927L0 2.99927L0 13.4985L8.12988 13.4985ZM19.4554 13.4985L19.4554 2.99927L11.3877 2.99927L11.2376 7.2583Q11.146 9.44824 10.8018 10.4773Q10.5766 11.1482 10.1256 11.3801Q9.88728 11.5027 9.58597 11.5027Q9.34793 11.5027 9.15018 11.4441L9.00003 13.4985Q9.70682 13.6633 10.2012 13.6633Q11.1272 13.6633 11.7354 13.2237Q11.9162 13.0931 12.0689 12.9236Q12.7354 12.1802 13.021 10.7922Q13.3067 9.4043 13.3799 7.16675L13.4568 4.97681L17.0567 4.97681L17.0567 13.4985L19.4554 13.4985ZM24.4677 9.2688L26.1449 9.2688L28.8769 13.4985L31.6344 13.4985L28.0968 8.06763L31.5319 2.99927L28.9648 2.99927L26.2072 7.24365L24.4677 7.24365L24.4677 2.99927L22.0507 2.99927L22.0507 13.4985L24.4677 13.4985L24.4677 9.2688ZM35.192 2.99927L32.775 2.99927L32.775 13.4985L35.0711 13.4985L40.0809 6.67236L40.0809 13.4985L42.4796 13.4985L42.4796 2.99927L40.2018 2.99927L35.192 9.84009L35.192 2.99927ZM54.6628 13.4985L54.6628 2.99927L45.09 2.99927L45.09 13.4985L47.507 13.4985L47.507 4.97681L52.2458 4.97681L52.2458 13.4985L54.6628 13.4985ZM59.5075 11.25L64.3818 11.25L65.312 13.4985L67.8608 13.4985L63.166 2.99927L60.7673 2.99927L56.0871 13.4985L58.5774 13.4985L59.5075 11.25ZM78.7053 13.4985L78.7053 2.99927L70.6377 2.99927L70.4876 7.2583Q70.396 9.44824 70.0518 10.4773Q69.8265 11.1482 69.3756 11.3801Q69.1373 11.5027 68.836 11.5027Q68.5979 11.5027 68.4002 11.4441L68.25 13.4985Q68.9568 13.6633 69.4512 13.6633Q70.3772 13.6633 70.9854 13.2237Q71.1662 13.0931 71.3189 12.9236Q71.9854 12.1802 72.271 10.7922Q72.5567 9.4043 72.6299 7.16675L72.7068 4.97681L76.3067 4.97681L76.3067 13.4985L78.7053 13.4985ZM83.7177 9.2688L85.3949 9.2688L88.1269 13.4985L90.8844 13.4985L87.3468 8.06763L90.7819 2.99927L88.2148 2.99927L85.4572 7.24365L83.7177 7.24365L83.7177 2.99927L81.3007 2.99927L81.3007 13.4985L83.7177 13.4985L83.7177 9.2688ZM94.442 2.99927L92.025 2.99927L92.025 13.4985L94.3211 13.4985L99.3309 6.67236L99.3309 13.4985L101.73 13.4985L101.73 2.99927L99.4518 2.99927L94.442 9.84009L94.442 2.99927ZM61.9538 5.3833L63.6164 9.4043L60.2876 9.4043L61.9538 5.3833Z" fill="#0023C4" fill-opacity="1.000000" fill-rule="evenodd"/>
</svg>
